<svg xmlns="http://www.w3.org/2000/svg" viewBox="0 0 1977 2178" width="16" height="16">
  <path fill="#2D7BFF" d="M1503,866.088L1503,1897.09L842,1299.029L1503,866.088ZM1503,866.088L1503,0L1887.88,279.588C1943.98,324.074 1972.98,385.55 1976.5,433.044C1972.98,480.538 1943.98,542.014 1887.88,586.5L1503,866.088ZM525,122.5L1268,717L780,1009.5L29.5,390L525,122.5ZM0,1707.579L0,523.778L664.389,1076.685C610.677,1107.163 519.646,1144.226 524.912,1265.909L524.912,2178L88.608,1861.053C32.495,1816.561 3.499,1755.071 0,1707.579Z"/>
  <path fill="#0A1D4D" d="M1976.5,1464C1973,1511.5 1944,1573 1887.88,1617.5L1503,1897.09L1503,866.088L1887.88,586.5C1944,542 1973,480.5 1976.5,433L1976.5,1464Z"/>
</svg>
