<svg xmlns="http://www.w3.org/2000/svg" width="16" height="16" viewBox="0 0 501 500">
  <path fill="#2D7BFF" fill-rule="evenodd" d="M 458 31.488 C 434.625 47.828, 414.714 61.896, 413.753 62.751 C 412.109 64.213, 411.992 72.581, 411.753 205.577 L 411.500 346.849 401.250 335.786 L 391 324.723 391 201.862 C 391 134.288, 390.782 79, 390.516 79 C 390.250 79, 370.338 92.760, 346.266 109.577 L 302.500 140.155 302 184.476 L 301.500 228.798 202.553 122.530 C 148.132 64.082, 101.782 15.110, 99.553 13.703 C 90.802 8.180, 78.615 7.628, 69.330 12.333 C 62.471 15.808, 36.026 40.704, 18.164 60.500 C 10.224 69.300, 2.891 77.850, 1.868 79.500 C 0.071 82.398, 0.007 89.190, 0.004 279.750 C 0.002 388.238, 0.273 477, 0.607 477 C 0.941 477, 23.214 461.617, 50.103 442.816 L 98.992 408.632 99.246 282.986 L 99.500 157.341 255.238 324.602 C 404.138 484.519, 411.262 492.004, 417.467 495.058 C 423.543 498.050, 424.489 498.225, 432.320 497.814 C 439.069 497.460, 441.561 496.861, 445.227 494.713 C 447.725 493.249, 461.184 481.475, 475.135 468.549 L 500.500 445.047 501.039 460.774 C 501.792 482.780, 501.860 101.476, 501.112 46.639 L 500.500 1.778 458 31.488 Z"/>
</svg>
