<svg width="24" height="24" viewBox="0 0 24 24" fill="none" xmlns="http://www.w3.org/2000/svg">
  <rect width="24" height="24" rx="7" fill="#EEF4FF"/>
  <path d="M7.05 15.65C7.15 11.1 9.05 6.7 12 6.7C14.95 6.7 16.85 11.1 16.95 15.65" stroke="#3867FF" stroke-width="1.55" stroke-linecap="round"/>
  <path d="M8.4 10.15C7.25 9.35 5.95 9.4 5.25 10.25C4.35 11.35 4.9 13.35 6.55 14.9C8.65 16.85 11 17.05 12 15.15C13 17.05 15.35 16.85 17.45 14.9C19.1 13.35 19.65 11.35 18.75 10.25C18.05 9.4 16.75 9.35 15.6 10.15" stroke="#3867FF" stroke-width="1.55" stroke-linecap="round" stroke-linejoin="round"/>
  <path d="M9.15 13.2C9.15 13.2 10.15 14 12 14C13.85 14 14.85 13.2 14.85 13.2" stroke="#111827" stroke-width="1.25" stroke-linecap="round"/>
</svg>
